<?xml version="1.0" encoding="UTF-8"?>
<svg version="1.1" xmlns="http://www.w3.org/2000/svg" width="845" height="146">
<path d="M0 0 C1.48162001 -0.0262423 2.96393002 -0.02366933 4.44555664 0.00219727 C5.23088272 -0.00021469 6.0162088 -0.00262665 6.82533264 -0.00511169 C8.48549449 -0.00413267 10.14568875 0.00927443 11.80566406 0.03417969 C14.34366166 0.06844083 16.87816828 0.05485786 19.41625977 0.03540039 C21.03020685 0.04230038 22.64414495 0.05197416 24.25805664 0.06469727 C25.39415627 0.05725746 25.39415627 0.05725746 26.5532074 0.04966736 C30.04461587 0.12745869 32.05871832 0.36429723 34.8972168 2.47094727 C36.99759568 5.45395728 36.91742045 7.57754037 36.85571289 11.19360352 C36.85442383 12.32926758 36.85313477 13.46493164 36.85180664 14.63500977 C36.41821289 17.63110352 36.41821289 17.63110352 35.22387695 19.30004883 C32.75817884 21.11765106 31.13603828 20.97449289 28.09399414 20.92407227 C27.16756104 20.91657959 26.24112793 20.90908691 25.28662109 20.90136719 C24.11317139 20.87405518 22.93972168 20.84674316 21.73071289 20.81860352 C17.99758789 20.75672852 14.26446289 20.69485352 10.41821289 20.63110352 C10.41821289 33.83110352 10.41821289 47.03110352 10.41821289 60.63110352 C11.40821289 60.63110352 12.39821289 60.63110352 13.41821289 60.63110352 C13.64379883 59.99301758 13.86938477 59.35493164 14.10180664 58.69750977 C15.91741741 54.46826806 18.18705496 50.55483063 20.48071289 46.56860352 C20.9936792 45.67407471 21.50664551 44.7795459 22.03515625 43.85791016 C26.7455294 35.69819231 31.59660469 27.62504906 36.48071289 19.56860352 C36.85342316 18.95274384 37.22613342 18.33688416 37.61013794 17.70236206 C38.6802586 15.93611286 39.75364075 14.17189574 40.82836914 12.40844727 C41.44848877 11.39000732 42.0686084 10.37156738 42.70751953 9.32226562 C45.64356929 4.70344495 45.64356929 4.70344495 47.41821289 2.63110352 C49.82836914 2.20532227 49.82836914 2.20532227 52.48071289 2.31860352 C53.35856445 2.3430957 54.23641602 2.36758789 55.14086914 2.39282227 C57.41821289 2.63110352 57.41821289 2.63110352 59.41821289 3.63110352 C58.86316539 8.38995343 56.68527868 11.93913705 54.23071289 15.94360352 C53.31585955 17.46656623 52.40184534 18.99003323 51.48852539 20.51391602 C50.99384766 21.33537109 50.49916992 22.15682617 49.98950195 23.00317383 C47.15153394 27.74958273 44.38379026 32.53698275 41.60571289 37.31860352 C37.97664941 43.55851123 34.33289935 49.78830826 30.63305664 55.98657227 C30.03017822 56.99824463 29.4272998 58.00991699 28.80615234 59.05224609 C27.65088983 60.98792276 26.49200077 62.92144066 25.32910156 64.85253906 C24.81452393 65.71532471 24.29994629 66.57811035 23.76977539 67.46704102 C23.31425293 68.22549316 22.85873047 68.98394531 22.3894043 69.76538086 C21.26430196 71.57621613 21.26430196 71.57621613 21.41821289 73.63110352 C23.39821289 73.63110352 25.37821289 73.63110352 27.41821289 73.63110352 C27.74394287 73.02451904 28.06967285 72.41793457 28.40527344 71.79296875 C35.11882582 59.30620631 41.92710075 46.8834239 48.93334961 34.55834961 C52.86484221 27.63547757 56.70185908 20.67190473 60.41821289 13.63110352 C64.98228592 14.17308122 64.98228592 14.17308122 66.87768555 16.16455078 C67.2752002 16.83542725 67.67271484 17.50630371 68.08227539 18.19750977 C68.5552002 18.97755371 69.028125 19.75759766 69.51538086 20.5612793 C70.01956543 21.42994629 70.52375 22.29861328 71.04321289 23.19360352 C71.85943115 24.55461182 71.85943115 24.55461182 72.69213867 25.94311523 C74.25948012 28.56455963 75.81116692 31.19463424 77.35742188 33.82855225 C79.3094434 37.14552875 81.27911686 40.45203322 83.24633789 43.76000977 C85.73920148 47.95232294 88.22999495 52.14573503 90.70581055 56.34814453 C91.48222855 57.66388442 92.2587563 58.97955956 93.03540039 60.29516602 C93.59374069 61.24343513 93.59374069 61.24343513 94.1633606 62.21086121 C97.02227221 67.03813066 100.05629351 71.73213281 103.20776367 76.37475586 C104.41821289 78.63110352 104.41821289 78.63110352 104.41821289 82.63110352 C93.52821289 82.63110352 82.63821289 82.63110352 71.41821289 82.63110352 C69.39696289 78.65047852 67.37571289 74.66985352 65.29321289 70.56860352 C64.64852051 69.32715576 64.00382812 68.08570801 63.33959961 66.80664062 C58.81714642 57.64108615 58.81714642 57.64108615 60.05102539 53.32250977 C60.50219727 52.4343457 60.95336914 51.54618164 61.41821289 50.63110352 C62.73821289 50.63110352 64.05821289 50.63110352 65.41821289 50.63110352 C67.4249969 54.25238795 69.42247769 57.87871995 71.41821289 61.50610352 C71.99055664 62.53864258 72.56290039 63.57118164 73.15258789 64.63500977 C73.69399414 65.62114258 74.23540039 66.60727539 74.79321289 67.62329102 C75.29594727 68.53449707 75.79868164 69.44570312 76.31665039 70.38452148 C77.41821289 72.63110352 77.41821289 72.63110352 77.41821289 74.63110352 C81.04821289 74.63110352 84.67821289 74.63110352 88.41821289 74.63110352 C84.87580542 67.23766975 80.87919433 60.3786839 76.41821289 53.50610352 C75.20962629 51.62866236 74.00128864 49.75106093 72.79321289 47.87329102 C71.15443312 45.32726352 69.5157123 42.78134347 67.86743164 40.24145508 C67.40981445 39.52699219 66.95219727 38.8125293 66.48071289 38.07641602 C66.07981445 37.45524902 65.67891602 36.83408203 65.26586914 36.1940918 C64.41821289 34.63110352 64.41821289 34.63110352 64.41821289 32.63110352 C61.27496991 35.50184506 59.41493703 38.18043082 57.57055664 42.00610352 C56.7936145 43.59479248 56.7936145 43.59479248 56.00097656 45.21557617 C55.45803955 46.3427002 54.91510254 47.46982422 54.35571289 48.63110352 C48.70585491 60.16317119 42.69613673 71.43207593 36.41821289 82.63110352 C30.45508123 82.65574926 24.49197894 82.67393751 18.52880859 82.68603516 C16.49852991 82.6910763 14.46825487 82.69790908 12.43798828 82.70654297 C9.52643942 82.71861819 6.61493839 82.72433386 3.70336914 82.72875977 C2.33306297 82.73650169 2.33306297 82.73650169 0.93507385 82.74440002 C-1.23754138 82.7445952 -3.41006007 82.69322156 -5.58178711 82.63110352 C-7.48942385 80.72346677 -6.73876723 77.21781698 -6.74291992 74.62036133 C-6.74788483 73.8869754 -6.75284973 73.15358948 -6.75796509 72.39797974 C-6.77262668 69.96005326 -6.77939647 67.52219192 -6.78491211 65.08422852 C-6.79066175 63.39369708 -6.7964195 61.70316566 -6.80218506 60.01263428 C-6.81270742 56.46162613 -6.8185415 52.9106407 -6.82202148 49.35961914 C-6.82749871 44.81210014 -6.85150486 40.2648817 -6.87999344 35.71745682 C-6.89863334 32.22242361 -6.90382621 28.72746245 -6.90535736 25.23238373 C-6.90838306 23.55626539 -6.91640881 21.88014829 -6.92954254 20.20407867 C-6.94662619 17.85562966 -6.94471704 15.50791003 -6.93823242 13.15942383 C-6.9474472 12.46831512 -6.95666199 11.77720642 -6.96615601 11.06515503 C-6.91594946 5.25127276 -6.1441882 1.08259331 0 0 Z " fill="#FFFFFF" transform="translate(32.581787109375,47.368896484375)"/>
<path d="M0 0 C7.425 -0.0928125 7.425 -0.0928125 15 -0.1875 C16.54558594 -0.21481201 18.09117187 -0.24212402 19.68359375 -0.27026367 C35.34632524 -0.36499793 35.34632524 -0.36499793 40.53881836 4.41723633 C44.32462554 8.70129776 45.27629424 12.20027733 45.234375 17.859375 C44.85862441 21.29123035 43.53698593 23.92602814 42 27 C42.9590625 28.175625 42.9590625 28.175625 43.9375 29.375 C47.61904325 34.0606005 47.4529902 37.8536439 47.4140625 43.71875 C46.89243878 47.85237195 45.66314497 49.80893472 42.80078125 52.73046875 C37.99784407 56.11648737 33.34953309 56.27307119 27.63671875 56.1953125 C26.93405884 56.19329834 26.23139893 56.19128418 25.50744629 56.18920898 C22.90073043 56.17880181 20.29410816 56.15087943 17.6875 56.125 C8.9321875 56.063125 8.9321875 56.063125 0 56 C0 37.52 0 19.04 0 0 Z M9 9 C9 14.28 9 19.56 9 25 C10.32 24.67 11.64 24.34 13 24 C14.46668414 23.90254535 15.93649572 23.8461766 17.40625 23.82421875 C18.23253906 23.80037109 19.05882812 23.77652344 19.91015625 23.75195312 C21.63646701 23.70899064 23.36310895 23.67773632 25.08984375 23.65820312 C30.16721976 23.50504073 30.16721976 23.50504073 34.58984375 21.1796875 C36.31497835 18.93401626 36.31497835 18.93401626 36.0625 15.4375 C35.32030013 11.99616507 35.32030013 11.99616507 33.109375 10.296875 C28.48726147 8.3690588 24.13819574 8.682831 19.1875 8.8125 C18.20845703 8.82603516 17.22941406 8.83957031 16.22070312 8.85351562 C13.81356459 8.88874204 11.40671057 8.94254537 9 9 Z M9 34 C9 38.29 9 42.58 9 47 C13.08372883 47.08083627 17.16586209 47.14042706 21.25 47.1875 C22.98830078 47.22520508 22.98830078 47.22520508 24.76171875 47.26367188 C25.87675781 47.27333984 26.99179687 47.28300781 28.140625 47.29296875 C29.68024902 47.31653442 29.68024902 47.31653442 31.25097656 47.34057617 C34.40481713 46.94984726 35.73043636 46.18607565 38 44 C39.2622587 40.80227795 39.20854002 39.49817893 37.875 36.3125 C35.63039459 33.54415332 34.3952512 33.02732838 31 32 C28.30902795 31.81076929 25.74818374 31.72007595 23.0625 31.75 C22.37220703 31.74226563 21.68191406 31.73453125 20.97070312 31.7265625 C16.3324316 31.74414836 13.57795323 32.47401559 9 34 Z " fill="#FFFFFF" transform="translate(735,7)"/>
<path d="M0 0 C7.425 -0.0928125 7.425 -0.0928125 15 -0.1875 C16.54558594 -0.21481201 18.09117187 -0.24212402 19.68359375 -0.27026367 C35.34632524 -0.36499793 35.34632524 -0.36499793 40.53881836 4.41723633 C44.32462554 8.70129776 45.27629424 12.20027733 45.234375 17.859375 C44.85862441 21.29123035 43.53698593 23.92602814 42 27 C42.9590625 28.175625 42.9590625 28.175625 43.9375 29.375 C47.61904325 34.0606005 47.4529902 37.8536439 47.4140625 43.71875 C46.89243878 47.85237195 45.66314497 49.80893472 42.80078125 52.73046875 C37.99784407 56.11648737 33.34953309 56.27307119 27.63671875 56.1953125 C26.93405884 56.19329834 26.23139893 56.19128418 25.50744629 56.18920898 C22.90073043 56.17880181 20.29410816 56.15087943 17.6875 56.125 C8.9321875 56.063125 8.9321875 56.063125 0 56 C0 37.52 0 19.04 0 0 Z M9 9 C9 14.28 9 19.56 9 25 C10.32 24.67 11.64 24.34 13 24 C14.46668414 23.90254535 15.93649572 23.8461766 17.40625 23.82421875 C18.23253906 23.80037109 19.05882812 23.77652344 19.91015625 23.75195312 C21.63646701 23.70899064 23.36310895 23.67773632 25.08984375 23.65820312 C30.16721976 23.50504073 30.16721976 23.50504073 34.58984375 21.1796875 C36.31497835 18.93401626 36.31497835 18.93401626 36.0625 15.4375 C35.32030013 11.99616507 35.32030013 11.99616507 33.109375 10.296875 C28.48726147 8.3690588 24.13819574 8.682831 19.1875 8.8125 C18.20845703 8.82603516 17.22941406 8.83957031 16.22070312 8.85351562 C13.81356459 8.88874204 11.40671057 8.94254537 9 9 Z M9 34 C9 38.29 9 42.58 9 47 C13.08372883 47.08083627 17.16586209 47.14042706 21.25 47.1875 C22.98830078 47.22520508 22.98830078 47.22520508 24.76171875 47.26367188 C25.87675781 47.27333984 26.99179687 47.28300781 28.140625 47.29296875 C29.68024902 47.31653442 29.68024902 47.31653442 31.25097656 47.34057617 C34.40481713 46.94984726 35.73043636 46.18607565 38 44 C39.2622587 40.80227795 39.20854002 39.49817893 37.875 36.3125 C35.63039459 33.54415332 34.3952512 33.02732838 31 32 C28.30902795 31.81076929 25.74818374 31.72007595 23.0625 31.75 C22.37220703 31.74226563 21.68191406 31.73453125 20.97070312 31.7265625 C16.3324316 31.74414836 13.57795323 32.47401559 9 34 Z " fill="#FFFFFF" transform="translate(585,7)"/>
<path d="M0 0 C2.97 0 5.94 0 9 0 C9 7.26 9 14.52 9 22 C19.23 22 29.46 22 40 22 C40 14.74 40 7.48 40 0 C42.97 0 45.94 0 49 0 C49 18.48 49 36.96 49 56 C46.03 56 43.06 56 40 56 C39.67 48.08 39.34 40.16 39 32 C29.43 32 19.86 32 10 32 C9.67 39.92 9.34 47.84 9 56 C6.03 56 3.06 56 0 56 C0 37.52 0 19.04 0 0 Z " fill="#FFFFFF" transform="translate(408,7)"/>
<path d="M0 0 C2.97 0 5.94 0 9 0 C28.49434339 38.4586291 28.49434339 38.4586291 36 57 C32.37 57 28.74 57 25 57 C24.01 54.69 23.02 52.38 22 50 C19.02058002 49.94544297 16.04218469 49.90606149 13.0625 49.875 C11.81629883 49.84986328 11.81629883 49.84986328 10.54492188 49.82421875 C4.92531898 49.78048643 -0.6799016 50.02055891 -6 52 C-6.804375 52.86625 -7.60875 53.7325 -8.4375 54.625 C-11.46108777 57.42734964 -12.32983469 57.32923389 -16.3125 57.3125 C-17.87642824 57.23259126 -19.43997572 57.1363128 -21 57 C-19.55171224 52.28556424 -17.6232974 47.92371227 -15.4453125 43.51171875 C-15.10249237 42.80908401 -14.75967224 42.10644928 -14.40646362 41.38252258 C-13.31615136 39.14911204 -12.22089714 36.91817472 -11.125 34.6875 C-8.6924759 29.72339708 -6.26587494 24.75656854 -3.86108398 19.77896118 C-3.10973898 18.22671585 -2.35136464 16.67787692 -1.59179688 15.12963867 C0.26499821 11.20671193 1.59181224 8.35701426 0.75 3.9375 C0.5025 2.638125 0.255 1.33875 0 0 Z M6 20 C2.7 26.93 -0.6 33.86 -4 41 C-0.97138044 42.00953985 0.36084991 42.01252048 3.44921875 41.66015625 C4.29677734 41.56669922 5.14433594 41.47324219 6.01757812 41.37695312 C6.89865234 41.27318359 7.77972656 41.16941406 8.6875 41.0625 C10.02651367 40.91264648 10.02651367 40.91264648 11.39257812 40.75976562 C13.59578221 40.51234698 15.79811781 40.25887721 18 40 C17.44570313 38.89140625 16.89140625 37.7828125 16.3203125 36.640625 C13.546875 31.09375 10.7734375 25.546875 8 20 C7.34 20 6.68 20 6 20 Z " fill="#FFFFFF" transform="translate(263,6)"/>
<path d="M0 0 C3.3 0 6.6 0 10 0 C16.56408403 13.5275657 23.08574923 27.07450281 29.44326782 40.70056152 C30.02250887 41.94132459 30.60305446 43.18147948 31.18490601 44.42102051 C31.99827345 46.15515432 32.80591783 47.891969 33.61328125 49.62890625 C34.07516846 50.61963135 34.53705566 51.61035645 35.01293945 52.63110352 C36 55 36 55 36 57 C32.7 57 29.4 57 26 57 C23 51.25 23 51.25 23 49 C19.83269988 49.11130798 16.66643974 49.2415826 13.5 49.375 C12.1696875 49.42140625 12.1696875 49.42140625 10.8125 49.46875 C4.11454588 49.76424798 -3.22640961 50.22496013 -9 54 C-9.66 54.99 -10.32 55.98 -11 57 C-13.3828125 57.29296875 -13.3828125 57.29296875 -16.125 57.1875 C-17.49011719 57.14689453 -17.49011719 57.14689453 -18.8828125 57.10546875 C-19.58148438 57.07066406 -20.28015625 57.03585938 -21 57 C-16.06270486 46.55243968 -11.10758725 36.113545 -6.125 25.6875 C-5.6611792 24.71611084 -5.1973584 23.74472168 -4.71948242 22.74389648 C-4.27838135 21.82165283 -3.83728027 20.89940918 -3.3828125 19.94921875 C-2.97168213 19.08361328 -2.56055176 18.21800781 -2.13696289 17.32617188 C-1.19493917 15.39883625 -0.17183326 13.5113746 0.87109375 11.63671875 C2.17631345 8.58819523 2.09294647 7.27023511 1.1875 4.125 C0.795625 2.76375 0.40375 1.4025 0 0 Z M7 19 C5.32705993 22.45533314 3.66272237 25.91473993 2 29.375 C1.52304687 30.35984375 1.04609375 31.3446875 0.5546875 32.359375 C0.10351562 33.30039062 -0.34765625 34.24140625 -0.8125 35.2109375 C-1.44091797 36.51490479 -1.44091797 36.51490479 -2.08203125 37.84521484 C-3.13064356 39.91630306 -3.13064356 39.91630306 -3 42 C3.93 41.34 10.86 40.68 18 40 C16.30497111 34.85658394 16.30497111 34.85658394 14.0546875 30.1328125 C13.52294922 29.14667969 13.52294922 29.14667969 12.98046875 28.140625 C12.61566406 27.47546875 12.25085938 26.8103125 11.875 26.125 C11.31619141 25.09246094 11.31619141 25.09246094 10.74609375 24.0390625 C9.83500474 22.35705202 8.91809685 20.67819564 8 19 C7.67 19 7.34 19 7 19 Z " fill="#FFFFFF" transform="translate(520,6)"/>
<path d="M0 0 C3.3 0 6.6 0 10 0 C10.50789062 1.07378906 11.01578125 2.14757812 11.5390625 3.25390625 C16.63128852 13.8779828 16.63128852 13.8779828 24 23 C31.08465635 16.54046039 35.37116325 8.79295059 39 0 C42.3 0 45.6 0 49 0 C48.41305376 4.46079144 46.61682154 7.92255078 44.375 11.75 C43.84193237 12.67208252 43.84193237 12.67208252 43.2980957 13.61279297 C39.87315283 19.42172741 35.9100335 24.71849219 31.43554688 29.76416016 C29.64905916 32.54658439 29.57576532 34.35122407 29.48828125 37.640625 C29.45283203 38.71054687 29.41738281 39.78046875 29.38085938 40.8828125 C29.35830078 41.99398437 29.33574219 43.10515625 29.3125 44.25 C29.27833984 45.37664063 29.24417969 46.50328125 29.20898438 47.6640625 C29.12656986 50.44260901 29.05739702 53.22084252 29 56 C26.03 56 23.06 56 20 56 C20.02731201 55.34628418 20.05462402 54.69256836 20.08276367 54.01904297 C20.70136958 36.96121387 20.70136958 36.96121387 12.44873047 22.76757812 C11.45074792 21.71870787 10.44865189 20.67373542 9.44238281 19.6328125 C6.95419744 16.81612601 5.14448597 13.6421335 3.3125 10.375 C2.66925781 9.24835937 2.02601563 8.12171875 1.36328125 6.9609375 C0 4 0 4 0 0 Z " fill="#FFFFFF" transform="translate(160,7)"/>
<path d="M0 0 C1.32 0 2.64 0 4 0 C5.640625 1.73388672 5.640625 1.73388672 7.25 4.1796875 C7.85320068 5.08122559 8.45640137 5.98276367 9.07788086 6.91162109 C9.71218018 7.88953613 10.34647949 8.86745117 11 9.875 C11.98335327 11.35540771 11.98335327 11.35540771 12.98657227 12.86572266 C14.338114 14.9027674 15.68385263 16.94367363 17.02392578 18.98828125 C19.39572588 22.60312261 21.79906648 26.19613794 24.20678711 29.78710938 C26.47969702 33.1857333 28.73849215 36.5937783 31 40 C31.33 26.8 31.66 13.6 32 0 C33.32 0 34.64 0 36 0 C36 15.84 36 31.68 36 48 C31 48 31 48 29.33764648 46.35791016 C28.85368408 45.59269043 28.36972168 44.8274707 27.87109375 44.0390625 C27.31631348 43.18272217 26.7615332 42.32638184 26.18994141 41.4440918 C25.32248291 40.04864136 25.32248291 40.04864136 24.4375 38.625 C23.2047505 36.70682336 21.97167112 34.78885869 20.73828125 32.87109375 C20.11904785 31.8951123 19.49981445 30.91913086 18.86181641 29.91357422 C16.01602784 25.46017261 13.06928312 21.07608617 10.125 16.6875 C8.43375 14.150625 6.7425 11.61375 5 9 C4.67 21.87 4.34 34.74 4 48 C2.68 48 1.36 48 0 48 C0 32.16 0 16.32 0 0 Z " fill="#C29745" transform="translate(728,82)"/>
<path d="M0 0 C7.92 0 15.84 0 24 0 C24.845625 2.578125 25.69125 5.15625 26.5625 7.8125 C26.83263916 8.62050049 27.10277832 9.42850098 27.38110352 10.26098633 C29.11111111 15.66666667 29.11111111 15.66666667 28 19 C17.11 19 6.22 19 -5 19 C-3 9 -3 9 0 0 Z " fill="#D2AE61" transform="translate(52,0)"/>
<path d="M0 0 C7.92 0 15.84 0 24 0 C27 9 27 9 29 19 C17.78 19 6.56 19 -5 19 C-1 3 -1 3 0 0 Z " fill="#D2AE61" transform="translate(71,24)"/>
<path d="M0 0 C8.25 0 16.5 0 25 0 C25.66 2.3925 26.32 4.785 27 7.25 C27.20882812 7.99668945 27.41765625 8.74337891 27.6328125 9.51269531 C28.53508273 12.84071188 29 15.52327412 29 19 C18.11 19 7.22 19 -4 19 C-3 11 -3 11 0 0 Z " fill="#D2AE61" transform="translate(31,24)"/>
<path d="M0 0 C2.97 0 5.94 0 9 0 C9 18.48 9 36.96 9 56 C6.03 56 3.06 56 0 56 C0 37.52 0 19.04 0 0 Z " fill="#FFFFFF" transform="translate(828,7)"/>
<path d="M0 0 C2.97 0 5.94 0 9 0 C9 18.48 9 36.96 9 56 C6.03 56 3.06 56 0 56 C0 37.52 0 19.04 0 0 Z " fill="#FFFFFF" transform="translate(678,7)"/>
<path d="M0 0 C22.54545455 0 22.54545455 0 28.375 5.0625 C31.57532109 8.87826746 31.44739662 12.30714182 31.421875 17.15625 C30.84253143 21.06145479 29.27038895 23.04578745 26.60546875 25.85546875 C25 27 25 27 22 27 C23.27015331 29.22955653 24.54110048 31.45865426 25.8125 33.6875 C26.34713867 34.62625977 26.34713867 34.62625977 26.89257812 35.58398438 C27.24384766 36.19951172 27.59511719 36.81503906 27.95703125 37.44921875 C28.3020166 38.05427246 28.64700195 38.65932617 29.00244141 39.28271484 C29.89329691 40.8163119 30.82490581 42.32606811 31.76171875 43.83203125 C33 46 33 46 33 48 C31.68 48 30.36 48 29 48 C27.53613281 46.37939453 27.53613281 46.37939453 26.203125 44.1328125 C25.47802734 42.92818359 25.47802734 42.92818359 24.73828125 41.69921875 C24.00158203 40.42498047 24.00158203 40.42498047 23.25 39.125 C22.74339844 38.28324219 22.23679687 37.44148438 21.71484375 36.57421875 C18 30.31605879 18 30.31605879 18 28 C13.05 28 8.1 28 3 28 C3 34.6 3 41.2 3 48 C2.01 48 1.02 48 0 48 C0 32.16 0 16.32 0 0 Z M3 4 C3 10.93 3 17.86 3 25 C7.269375 25.1546875 7.269375 25.1546875 11.625 25.3125 C12.51010254 25.35802002 13.39520508 25.40354004 14.30712891 25.45043945 C18.40184315 25.52186425 21.20848409 25.31929248 24.51171875 22.7578125 C27.57208898 19.3659422 28.07685988 17.63354472 28.3125 13.22265625 C27.76471499 9.32653534 25.83898983 7.64092077 23 5 C20.703463 3.8517315 19.41686833 3.88438825 16.8671875 3.90234375 C16.14128418 3.90484131 15.41538086 3.90733887 14.66748047 3.90991211 C13.74596191 3.91901611 12.82444336 3.92812012 11.875 3.9375 C7.481875 3.9684375 7.481875 3.9684375 3 4 Z " fill="#CAA253" transform="translate(585,82)"/>
<path d="M0 0 C19 0 19 0 27 3 C30.27473158 6.77853644 31.79580507 9.99722432 32 15 C31.03604289 20.49455553 29.35873382 23.49175082 25 27 C24.01 27 23.02 27 22 27 C22.33322266 27.56509277 22.66644531 28.13018555 23.00976562 28.71240234 C24.51100669 31.26398724 26.0055726 33.819419 27.5 36.375 C28.02464844 37.26445313 28.54929688 38.15390625 29.08984375 39.0703125 C29.58613281 39.92109375 30.08242187 40.771875 30.59375 41.6484375 C31.05458984 42.43395996 31.51542969 43.21948242 31.99023438 44.02880859 C33 46 33 46 33 48 C31.68 48 30.36 48 29 48 C27.53613281 46.37939453 27.53613281 46.37939453 26.203125 44.1328125 C25.47802734 42.92818359 25.47802734 42.92818359 24.73828125 41.69921875 C24.00158203 40.42498047 24.00158203 40.42498047 23.25 39.125 C22.74339844 38.28324219 22.23679688 37.44148438 21.71484375 36.57421875 C18 30.31605879 18 30.31605879 18 28 C13.05 28 8.1 28 3 28 C3 34.6 3 41.2 3 48 C2.01 48 1.02 48 0 48 C0 32.16 0 16.32 0 0 Z M3 4 C3 10.93 3 17.86 3 25 C7.269375 25.1546875 7.269375 25.1546875 11.625 25.3125 C12.51010254 25.35802002 13.39520508 25.40354004 14.30712891 25.45043945 C18.49984343 25.52357368 21.20213361 25.30837087 24.5234375 22.60546875 C27.44128477 19.53574615 27.93345125 18.8817709 28.25 14.6875 C27.98368917 10.75941531 27.43481646 9.04352057 25 6 C22.12823941 4.24384901 20.01697261 3.75690039 16.671875 3.8046875 C15.9509668 3.80968262 15.23005859 3.81467773 14.48730469 3.81982422 C13.13233887 3.84713623 13.13233887 3.84713623 11.75 3.875 C7.41875 3.936875 7.41875 3.936875 3 4 Z " fill="#E0C47A" transform="translate(164,82)"/>
<path d="M0 0 C3.77163897 1.99484973 6.107708 4.34537602 7.69921875 8.27734375 C7.88671875 11.58984375 7.88671875 11.58984375 7.69921875 14.27734375 C6.70921875 14.27734375 5.71921875 14.27734375 4.69921875 14.27734375 C4.30734375 13.01921875 3.91546875 11.76109375 3.51171875 10.46484375 C2.45090811 7.71549506 1.78616054 6.36165094 -0.36328125 4.27734375 C-6.15451824 2.30585882 -11.32551321 2.34169047 -16.86328125 4.96484375 C-19.39852079 7.06902099 -19.39852079 7.06902099 -20.36328125 9.71484375 C-20.28118356 13.08084905 -19.286987 14.57781249 -17.30078125 17.27734375 C-14.91949589 18.58749791 -14.91949589 18.58749791 -12.17578125 19.33984375 C-11.20125 19.66210938 -10.22671875 19.984375 -9.22265625 20.31640625 C-8.2584375 20.63351563 -7.29421875 20.950625 -6.30078125 21.27734375 C-0.10142839 23.61636339 5.56359274 26.00609172 8.69921875 32.27734375 C9.09322663 36.37502574 8.93309973 38.79087132 7.13671875 42.52734375 C3.5139599 46.61455886 0.3362966 47.99771252 -4.953125 48.55859375 C-12.45382079 48.80553024 -17.18973848 47.71207287 -23.17578125 43.02734375 C-25.72280438 39.73119617 -26.05909203 37.38606054 -26.30078125 33.27734375 C-24.98078125 33.27734375 -23.66078125 33.27734375 -22.30078125 33.27734375 C-21.97078125 34.53546875 -21.64078125 35.79359375 -21.30078125 37.08984375 C-20.3606992 39.59525109 -19.78457903 40.94282592 -17.56640625 42.4765625 C-10.70356126 45.20308037 -4.1935103 44.89658079 2.69921875 42.27734375 C3.89676692 38.68469923 4.03016833 36.05016901 3.69921875 32.27734375 C0.07594626 27.3390977 -5.33903066 26.35650995 -10.92578125 24.65429688 C-16.05745035 22.99058437 -19.40191756 21.0373934 -23.30078125 17.27734375 C-24.91700606 14.04489413 -24.88532433 10.77161239 -24.30078125 7.27734375 C-19.38579884 -1.72690403 -9.19314797 -2.8874913 0 0 Z " fill="#D9B86D" transform="translate(327.30078125,82.72265625)"/>
<path d="M0 0 C1.32 0 2.64 0 4 0 C4.0093457 1.12494873 4.01869141 2.24989746 4.02832031 3.40893555 C4.06827255 7.59325369 4.13404552 11.77684063 4.20751953 15.96069336 C4.23569889 17.76951689 4.25692855 19.57846286 4.27099609 21.38745117 C4.29246814 23.99200994 4.33913811 26.59510134 4.390625 29.19921875 C4.39185364 30.00461594 4.39308228 30.81001312 4.39434814 31.63981628 C4.52481325 36.67095184 5.23083533 39.34352441 9 43 C12.88639851 45.44287906 16.44532276 45.15923035 20.84375 44.55078125 C23.93988313 43.75992116 25.79926998 42.26950283 28 40 C29.63657754 36.72684491 29.2430807 33.09377769 29.31640625 29.4921875 C29.33718735 28.65156769 29.35796844 27.81094788 29.37937927 26.94485474 C29.44485439 24.25498765 29.5037502 21.56502157 29.5625 18.875 C29.60568716 17.05337511 29.64930152 15.23176029 29.69335938 13.41015625 C29.80053368 8.94020606 29.90180685 4.47015614 30 0 C31.32 0 32.64 0 34 0 C34.0745169 4.99874665 34.12877437 9.99716533 34.16479492 14.99633789 C34.17982126 16.69463742 34.20024823 18.39289855 34.22631836 20.09106445 C34.26297449 22.54127518 34.27978789 24.99097 34.29296875 27.44140625 C34.30845261 28.19273331 34.32393646 28.94406036 34.33988953 29.71815491 C34.34181195 35.82850878 33.06043673 40.4587947 29.125 45.3125 C24.54479712 48.94971993 20.29277919 49.45830108 14.56640625 49.3046875 C10.37599991 48.80719634 7.32171352 47.59220903 4 45 C0.15403823 39.67657545 -0.56278147 34.52955659 -0.390625 28.125 C-0.38496521 27.31506592 -0.37930542 26.50513184 -0.37347412 25.6706543 C-0.3512902 23.11313833 -0.30113203 20.55708409 -0.25 18 C-0.22991157 16.25392665 -0.21166493 14.50783108 -0.1953125 12.76171875 C-0.15148505 8.50725925 -0.08258721 4.25387643 0 0 Z " fill="#CEA85A" transform="translate(510,82)"/>
<path d="M0 0 C1.87408447 0.22898865 1.87408447 0.22898865 4 1 C5.12640381 2.86659241 5.12640381 2.86659241 6.01464844 5.33618164 C6.3546991 6.2570607 6.69474976 7.17793976 7.04510498 8.12672424 C7.39631409 9.12775681 7.74752319 10.12878937 8.109375 11.16015625 C8.66688446 12.68956093 8.66688446 12.68956093 9.23565674 14.24986267 C10.42216793 17.51551804 11.5862402 20.78867635 12.75 24.0625 C13.5493189 26.27461749 14.35008194 28.48621373 15.15234375 30.69726562 C17.11837483 36.12556772 19.0660307 41.56019842 21 47 C19.02 47.495 19.02 47.495 17 48 C14.525 42.06 14.525 42.06 12 36 C4.74 35.67 -2.52 35.34 -10 35 C-10.99 38.3 -11.98 41.6 -13 45 C-13.33 45.99 -13.66 46.98 -14 48 C-15.32 48 -16.64 48 -18 48 C-15.62290126 39.30306447 -12.47647451 30.89637956 -9.3293457 22.45678711 C-8.43111798 20.04536655 -7.54050679 17.63122171 -6.65039062 15.21679688 C-6.07857845 13.67691488 -5.50632872 12.13719527 -4.93359375 10.59765625 C-4.66896835 9.87892838 -4.40434296 9.1602005 -4.13169861 8.41969299 C-2.97674719 5.33800348 -1.83504908 2.75257362 0 0 Z M1 6 C-0.3196608 9.22628592 -1.62944528 12.45649304 -2.9375 15.6875 C-3.49727539 17.05551758 -3.49727539 17.05551758 -4.06835938 18.45117188 C-4.60493164 19.78051758 -4.60493164 19.78051758 -5.15234375 21.13671875 C-5.48226318 21.94842529 -5.81218262 22.76013184 -6.15209961 23.59643555 C-7.19941117 26.38489098 -7.19941117 26.38489098 -8 31 C-1.73 31 4.54 31 11 31 C9.87638112 27.7703468 8.7511584 24.54126763 7.625 21.3125 C7.14933594 19.94448242 7.14933594 19.94448242 6.6640625 18.54882812 C6.3546875 17.66259766 6.0453125 16.77636719 5.7265625 15.86328125 C5.44377441 15.05157471 5.16098633 14.23986816 4.86962891 13.40356445 C3.96803802 10.91166039 2.99728271 8.45499672 2 6 C1.67 6 1.34 6 1 6 Z " fill="#D2AE60" transform="translate(454,82)"/>
<path d="M0 0 C1.32 0 2.64 0 4 0 C6.0839388 5.3883883 8.16513708 10.77782433 10.24389648 16.16821289 C10.95019087 17.99857552 11.65720938 19.82865892 12.36499023 21.65844727 C13.38720081 24.30149913 14.40672927 26.9455727 15.42578125 29.58984375 C15.73840408 30.39646957 16.05102692 31.2030954 16.37312317 32.03416443 C18.40223099 37.30923189 20.25824907 42.62327753 22 48 C19.64453125 47.84765625 19.64453125 47.84765625 17 47 C15.08334899 43.47973267 14.19503169 39.85065767 13 36 C5.74 35.67 -1.52 35.34 -9 35 C-9.99 38.3 -10.98 41.6 -12 45 C-12.66 45.99 -13.32 46.98 -14 48 C-14.99 48 -15.98 48 -17 48 C-16.40086458 44.68723946 -15.59820864 41.63616322 -14.41772461 38.48510742 C-13.93733986 37.1943354 -13.93733986 37.1943354 -13.44725037 35.87748718 C-13.10243118 34.9627211 -12.757612 34.04795502 -12.40234375 33.10546875 C-12.04862198 32.15811356 -11.69490021 31.21075836 -11.33045959 30.23469543 C-10.20302204 27.21762195 -9.07033616 24.20255006 -7.9375 21.1875 C-7.17087676 19.13880176 -6.40459672 17.08997507 -5.63867188 15.04101562 C-3.76309017 10.02584791 -1.88319883 5.01231209 0 0 Z M2 6 C-4.06684676 18.12049021 -4.06684676 18.12049021 -7 31 C-1.06 31 4.88 31 11 31 C10.32099038 26.92594228 9.77170341 23.97579451 8.37109375 20.2578125 C8.05849609 19.41992188 7.74589844 18.58203125 7.42382812 17.71875 C7.09833984 16.8628125 6.77285156 16.006875 6.4375 15.125 C6.10814453 14.24585937 5.77878906 13.36671875 5.43945312 12.4609375 C4.63113386 10.30541947 3.81787706 8.15190559 3 6 C2.67 6 2.34 6 2 6 Z " fill="#C69D4C" transform="translate(670,82)"/>
<path d="M0 0 C1.08667969 -0.01160156 1.08667969 -0.01160156 2.1953125 -0.0234375 C5.99388493 -0.00942063 7.76837084 0.09558056 11 2.25 C11.27668225 4.84426798 11.37295242 7.16263646 11.3125 9.75 C11.31733398 10.78447266 11.31733398 10.78447266 11.32226562 11.83984375 C11.26712592 16.98287408 11.26712592 16.98287408 9 19.25 C7.15234375 19.50878906 7.15234375 19.50878906 4.9375 19.515625 C3.74253906 19.51949219 3.74253906 19.51949219 2.5234375 19.5234375 C1.69070313 19.51570313 0.85796875 19.50796875 0 19.5 C-0.83273437 19.50773437 -1.66546875 19.51546875 -2.5234375 19.5234375 C-3.32007813 19.52085938 -4.11671875 19.51828125 -4.9375 19.515625 C-5.66839844 19.51336914 -6.39929688 19.51111328 -7.15234375 19.50878906 C-9 19.25 -9 19.25 -11 17.25 C-11.22503811 14.70151644 -11.32440357 12.29736331 -11.3125 9.75 C-11.32861328 9.06035156 -11.34472656 8.37070312 -11.36132812 7.66015625 C-11.36328125 5.65625 -11.36328125 5.65625 -11 2.25 C-7.26332113 -0.24111925 -4.32129024 -0.04613477 0 0 Z " fill="#FFFFFF" transform="translate(11,47.75)"/>
<path d="M0 0 C9.9 0 19.8 0 30 0 C30 1.32 30 2.64 30 4 C21.09 4 12.18 4 3 4 C3 9.94 3 15.88 3 22 C10.59 22 18.18 22 26 22 C26 22.99 26 23.98 26 25 C18.41 25 10.82 25 3 25 C3 31.6 3 38.2 3 45 C11.91 45 20.82 45 30 45 C30 45.99 30 46.98 30 48 C20.1 48 10.2 48 0 48 C0 32.16 0 16.32 0 0 Z " fill="#DDBE74" transform="translate(237,82)"/>
<path d="M0 0 C12.21 0 24.42 0 37 0 C37 1.32 37 2.64 37 4 C31.72 4 26.44 4 21 4 C21 18.52 21 33.04 21 48 C19.68 48 18.36 48 17 48 C17 33.48 17 18.96 17 4 C11.72 4 6.44 4 1 4 C0.67 2.68 0.34 1.36 0 0 Z " fill="#D5B367" transform="translate(369,82)"/>
<path d="M0 0 C12.21 0 24.42 0 37 0 C37 1.32 37 2.64 37 4 C31.39 4 25.78 4 20 4 C20 18.52 20 33.04 20 48 C19.01 48 18.02 48 17 48 C17 33.48 17 18.96 17 4 C11.39 4 5.78 4 0 4 C0 2.68 0 1.36 0 0 Z " fill="#BF913E" transform="translate(800,82)"/>
</svg>
